<svg width="71" height="33" viewBox="0 0 71 33" fill="none" xmlns="http://www.w3.org/2000/svg">
<g clip-path="url(#clip0_4471_700)">
<path d="M17.9216 0.0347414V6.40631C17.9216 6.42368 17.9077 6.44106 17.8868 6.44106H16.6882C16.6882 6.44106 16.6673 6.43411 16.6604 6.42716L14.3604 3.09893C14.343 3.07114 14.2979 3.08504 14.2979 3.1163V6.40631C14.2979 6.42368 14.284 6.44106 14.2631 6.44106H12.8421C12.8247 6.44106 12.8074 6.42716 12.8074 6.40631V0.0347414C12.8074 0.0173707 12.8213 0 12.8421 0H14.0408C14.0408 0 14.0616 0.00694828 14.0685 0.0138966L16.3685 3.34212C16.3859 3.36992 16.4311 3.35602 16.4311 3.32475V0.0347414C16.4311 0.0173707 16.445 0 16.4658 0H17.8868C17.9042 0 17.9216 0.0138966 17.9216 0.0347414Z" fill="#263B74"/>
<path d="M5.14647 6.40631L5.13257 3.16147C5.13257 3.12673 5.08741 3.1163 5.07004 3.14757L3.76022 5.78444C3.76022 5.78444 3.74285 5.80181 3.73243 5.80181H3.09663C3.09663 5.80181 3.07231 5.79486 3.06883 5.78444L1.76596 3.23442C1.75207 3.20316 1.70343 3.21358 1.70343 3.24832V6.40284C1.70343 6.42021 1.68953 6.43411 1.67216 6.43411H0.331074C0.313702 6.43411 0.299805 6.42021 0.299805 6.40284V0.0312673C0.299805 0.0138966 0.313702 0 0.331074 0H1.52971C1.52971 0 1.55403 0.00694828 1.55751 0.0173707L3.40584 3.65827C3.41626 3.68259 3.45101 3.68259 3.4649 3.65827L5.26807 0.0173707C5.26807 0.0173707 5.28544 0 5.29587 0H6.4945C6.51188 0 6.52577 0.0138966 6.52577 0.0312673L6.53967 6.40631C6.53967 6.42368 6.52577 6.43758 6.5084 6.43758H5.17774C5.16037 6.43758 5.14647 6.42368 5.14647 6.40631Z" fill="#263B74"/>
<path d="M10.4552 4.1377V6.40284C10.4552 6.42021 10.4413 6.43758 10.4205 6.43758H8.96821C8.95084 6.43758 8.93347 6.42368 8.93347 6.40284V4.10991C8.93347 4.10991 8.93347 4.09948 8.92999 4.09601L6.91142 0.0486379C6.901 0.024319 6.91489 0 6.94269 0H8.46791C8.46791 0 8.49223 0.00694828 8.49918 0.0173707L9.73256 2.49443C9.74646 2.51875 9.7812 2.51875 9.7951 2.49443L11.0285 0.0173707C11.0285 0.0173707 11.0459 0 11.0597 0H12.4564C12.4807 0 12.4981 0.0277931 12.4877 0.0486379L10.4587 4.12033C10.4587 4.12033 10.4552 4.13075 10.4552 4.13423V4.1377Z" fill="#263B74"/>
<path d="M18.2864 0.0347414C18.2864 0.0138966 18.3003 0 18.3211 0H20.8261C22.6049 0 23.8244 1.24027 23.8244 3.22053C23.8244 5.20079 22.6049 6.44106 20.8261 6.44106H18.3211C18.3037 6.44106 18.2864 6.42716 18.2864 6.40631V0.0347414ZM20.7636 4.98539C21.6773 4.98539 22.2888 4.33225 22.2888 3.22053C22.2888 2.1088 21.6738 1.45566 20.7636 1.45566H19.8394C19.822 1.45566 19.8047 1.46956 19.8047 1.49041V4.9576C19.8047 4.97497 19.8185 4.99234 19.8394 4.99234H20.7636V4.98539Z" fill="#263B74"/>
<path d="M2.7146 10.3162H6.88716V19.0906H16.1887V10.3162H20.3612V32.2803H16.1887V23.0172H6.88716V32.2803H2.7146V10.3162Z" fill="#E5756A"/>
<path d="M20.3647 32.6529H16.1922C15.9832 32.6529 15.8167 32.4841 15.8167 32.2802V23.3898H7.26614V32.2802C7.26614 32.4876 7.09612 32.6529 6.89068 32.6529H2.71457C2.50559 32.6529 2.33911 32.4841 2.33911 32.2802V10.3161C2.33911 10.1087 2.50913 9.94348 2.71457 9.94348H6.88714C7.09612 9.94348 7.2626 10.1122 7.2626 10.3161V18.7144H15.8132V10.3161C15.8132 10.1087 15.9832 9.94348 16.1886 9.94348H20.3612C20.5702 9.94348 20.7367 10.1122 20.7367 10.3161V32.2802C20.7367 32.4876 20.5666 32.6529 20.3612 32.6529H20.3647ZM16.5676 31.9041H19.9857V10.6887H16.5676V19.087C16.5676 19.2944 16.3976 19.4596 16.1922 19.4596H6.88714C6.67815 19.4596 6.51168 19.2909 6.51168 19.087V10.6887H3.09357V31.9041H6.51168V23.0137C6.51168 22.8063 6.6817 22.641 6.88714 22.641H16.1886C16.3976 22.641 16.5641 22.8098 16.5641 23.0137V31.9041H16.5676Z" fill="#E5756A"/>
<path d="M24.8137 10.3162H32.879C33.9912 10.3162 35.0007 10.4884 35.9075 10.8364C36.8143 11.1845 37.5935 11.6661 38.2417 12.2777C38.8899 12.8929 39.3894 13.6241 39.74 14.4713C40.0907 15.3186 40.2643 16.2466 40.2643 17.2485C40.2643 17.9832 40.1403 18.6757 39.8923 19.3191C39.6444 19.9624 39.3044 20.5459 38.8722 21.0662C38.4401 21.5865 37.9336 22.047 37.3562 22.4477C36.7789 22.845 36.1696 23.1579 35.532 23.3828L35.5002 23.5973L41.4331 32.0342V32.2803H36.6443L30.9273 24.0297H28.9792V32.2803H24.8066V10.3162H24.8137ZM32.8507 20.2225C33.8 20.2225 34.5757 19.9378 35.1849 19.3648C35.7942 18.7917 36.0952 18.0676 36.0952 17.1852C36.0952 16.7985 36.0279 16.4189 35.8933 16.0498C35.7587 15.6806 35.5568 15.3537 35.2912 15.069C35.022 14.7842 34.689 14.5522 34.2852 14.3799C33.885 14.2077 33.4245 14.1198 32.9109 14.1198H28.9863V20.2225H32.8507Z" fill="#E5756A"/>
<path d="M41.4436 32.6529H36.6547C36.5308 32.6529 36.4139 32.5931 36.343 32.4911L30.7359 24.4022H29.3651V32.2802C29.3651 32.4876 29.1951 32.6529 28.9897 32.6529H24.8171C24.6081 32.6529 24.4417 32.4841 24.4417 32.2802V10.3161C24.4417 10.1087 24.6117 9.94348 24.8171 9.94348H32.8824C34.0371 9.94348 35.0998 10.1263 36.0455 10.4884C36.9948 10.854 37.8236 11.3637 38.5037 12.007C39.1873 12.6538 39.7222 13.4343 40.0905 14.3307C40.4589 15.2201 40.6431 16.2044 40.6431 17.2484C40.6431 18.0253 40.5085 18.7671 40.2464 19.4526C39.9843 20.1311 39.623 20.7568 39.1661 21.3052C38.7127 21.8501 38.1778 22.3387 37.5757 22.7535C37.0692 23.1051 36.5343 23.3933 35.9782 23.6148L41.7482 31.8162C41.7907 31.8795 41.8155 31.9533 41.8155 32.0306V32.2767C41.8155 32.4841 41.6455 32.6493 41.4401 32.6493L41.4436 32.6529ZM36.8495 31.9041H40.891L35.1989 23.8117C35.1458 23.7343 35.121 23.6394 35.1352 23.5445L35.1671 23.3301C35.1883 23.193 35.2804 23.0769 35.415 23.0312C36.0172 22.8203 36.6016 22.518 37.1506 22.1419C37.6961 21.7657 38.1814 21.3228 38.5887 20.8306C38.9925 20.342 39.3148 19.7901 39.5486 19.1854C39.7788 18.5878 39.8957 17.9339 39.8957 17.2484C39.8957 16.2993 39.7292 15.4134 39.3998 14.6154C39.0704 13.8209 38.5958 13.1249 37.9901 12.5519C37.3809 11.9754 36.637 11.5184 35.7798 11.1879C34.9191 10.8575 33.9486 10.6923 32.886 10.6923H25.1961V31.9076H28.6142V24.0296C28.6142 23.8222 28.7842 23.657 28.9897 23.657H30.9378C31.0618 23.657 31.1787 23.7167 31.2495 23.8187L36.8566 31.9076L36.8495 31.9041ZM32.8505 20.5986H28.9861C28.7772 20.5986 28.6107 20.4299 28.6107 20.226V14.1233C28.6107 13.9159 28.7807 13.7506 28.9861 13.7506H32.9108C33.4739 13.7506 33.9875 13.8491 34.4374 14.0424C34.8837 14.2358 35.2662 14.4994 35.5673 14.8193C35.8684 15.1427 36.0986 15.5154 36.2474 15.9267C36.3962 16.3344 36.4705 16.7598 36.4705 17.1887C36.4705 18.1695 36.1234 18.9956 35.4398 19.6389C34.7633 20.2787 33.8884 20.6021 32.847 20.6021L32.8505 20.5986ZM29.3651 19.8498H32.8505C33.7077 19.8498 34.3843 19.6038 34.9227 19.094C35.4575 18.5913 35.7161 17.9656 35.7161 17.1887C35.7161 16.8442 35.6559 16.5067 35.539 16.1798C35.4221 15.8634 35.245 15.5751 35.0147 15.3255C34.7845 15.0795 34.487 14.8756 34.1363 14.7244C33.7821 14.5732 33.3712 14.4959 32.9108 14.4959H29.3616V19.8533L29.3651 19.8498Z" fill="#E5756A"/>
<path d="M60.7266 21.3335C60.8151 21.228 60.8151 21.0733 60.7266 20.9679L51.4322 10.0526C51.3755 9.98581 51.294 9.94714 51.209 9.94714H45.0139C44.7695 9.94714 44.6349 10.2284 44.7908 10.4182L53.7806 20.9644C53.8691 21.0698 53.8691 21.2245 53.7806 21.3299L44.7093 32.1855C44.5535 32.3718 44.6881 32.6565 44.9325 32.6565H51.1276C51.2126 32.6565 51.294 32.6178 51.3507 32.5546L57.4041 25.3656L60.7266 21.3335Z" fill="#E5756A"/>
<path d="M63.493 18.2083L69.9963 10.4182C70.1521 10.2319 70.0175 9.94714 69.7731 9.94714H63.5851C63.5001 9.94714 63.4186 9.98581 63.362 10.0526L59.9509 14.1586C59.8624 14.264 59.8624 14.4187 59.9509 14.5242L63.0503 18.2118C63.1671 18.3489 63.3797 18.3489 63.493 18.2118V18.2083Z" fill="#263B74"/>
<path d="M63.5038 24.3849L70.0176 32.189C70.1735 32.3753 70.0389 32.6601 69.7945 32.6601H63.5959C63.5108 32.6601 63.4294 32.6214 63.3727 32.5546L59.9546 28.4416C59.866 28.3362 59.866 28.1815 59.9546 28.076L63.061 24.3849C63.1779 24.2478 63.3904 24.2478 63.5073 24.3849H63.5038Z" fill="#263B74"/>
</g>
<defs>
<clipPath id="clip0_4471_700">
<rect width="71" height="32.66" fill="white"/>
</clipPath>
</defs>
</svg>
