<svg width="50" height="32" viewBox="0 0 50 32" fill="none" xmlns="http://www.w3.org/2000/svg">
<path d="M12.6209 2.02447V6.51149C12.6209 6.52372 12.6112 6.53595 12.5965 6.53595H11.7524C11.7524 6.53595 11.7377 6.53106 11.7328 6.52617L10.1131 4.18235C10.1009 4.16277 10.069 4.17256 10.069 4.19458V6.51149C10.069 6.52372 10.0593 6.53595 10.0446 6.53595H9.04388C9.03164 6.53595 9.01941 6.52617 9.01941 6.51149V2.02447C9.01941 2.01223 9.0292 2 9.04388 2H9.88799C9.88799 2 9.90267 2.00489 9.90756 2.00979L11.5273 4.35361C11.5395 4.37318 11.5713 4.36339 11.5713 4.34137V2.02447C11.5713 2.01223 11.5811 2 11.5958 2H12.5965C12.6087 2 12.6209 2.00979 12.6209 2.02447Z" fill="#263B74"/>
<path d="M3.62445 6.51149L3.61466 4.22638C3.61466 4.20192 3.58285 4.19458 3.57062 4.2166L2.64822 6.07355C2.64822 6.07355 2.63598 6.08578 2.62864 6.08578H2.1809C2.1809 6.08578 2.16377 6.08089 2.16132 6.07355L1.24381 4.27776C1.23402 4.25574 1.19977 4.26308 1.19977 4.28755V6.50904C1.19977 6.52127 1.18998 6.53106 1.17775 6.53106H0.233324C0.221091 6.53106 0.211304 6.52127 0.211304 6.50904V2.02202C0.211304 2.00979 0.221091 2 0.233324 2H1.07744C1.07744 2 1.09456 2.00489 1.09701 2.01223L2.39865 4.57625C2.40599 4.59337 2.43046 4.59337 2.44025 4.57625L3.71008 2.01223C3.71008 2.01223 3.72232 2 3.72966 2H4.57377C4.586 2 4.59579 2.00979 4.59579 2.02202L4.60557 6.51149C4.60557 6.52372 4.59579 6.53351 4.58355 6.53351H3.64647C3.63424 6.53351 3.62445 6.52372 3.62445 6.51149Z" fill="#263B74"/>
<path d="M7.36306 4.91387V6.50904C7.36306 6.52127 7.35327 6.53351 7.33859 6.53351H6.31587C6.30364 6.53351 6.29141 6.52372 6.29141 6.50904V4.8943C6.29141 4.8943 6.29141 4.88696 6.28896 4.88451L4.86743 2.03425C4.86009 2.01713 4.86987 2 4.88945 2H5.96355C5.96355 2 5.98068 2.00489 5.98557 2.01223L6.85415 3.75664C6.86393 3.77377 6.8884 3.77377 6.89819 3.75664L7.76676 2.01223C7.76676 2.01223 7.779 2 7.78879 2H8.77236C8.78949 2 8.80172 2.01957 8.79438 2.03425L7.36551 4.90164C7.36551 4.90164 7.36306 4.90898 7.36306 4.91143V4.91387Z" fill="#263B74"/>
<path d="M12.8779 2.02447C12.8779 2.00979 12.8877 2 12.9024 2H14.6665C15.9192 2 16.778 2.87343 16.778 4.26798C16.778 5.66253 15.9192 6.53595 14.6665 6.53595H12.9024C12.8902 6.53595 12.8779 6.52617 12.8779 6.51149V2.02447ZM14.6224 5.51084C15.2659 5.51084 15.6965 5.05088 15.6965 4.26798C15.6965 3.48507 15.2635 3.02512 14.6224 3.02512H13.9716C13.9594 3.02512 13.9471 3.0349 13.9471 3.04958V5.49127C13.9471 5.5035 13.9569 5.51573 13.9716 5.51573H14.6224V5.51084Z" fill="#263B74"/>
<path d="M1.91162 9.26489H4.85005V15.444H11.4004V9.26489H14.3388V24.7326H11.4004V18.2093H4.85005V24.7326H1.91162V9.26489Z" fill="#E5756A"/>
<path d="M14.3413 24.995H11.4029C11.2557 24.995 11.1385 24.8761 11.1385 24.7325V18.4717H5.11695V24.7325C5.11695 24.8786 4.99722 24.995 4.85255 24.995H1.91163C1.76445 24.995 1.64722 24.8761 1.64722 24.7325V9.26486C1.64722 9.1188 1.76695 9.00244 1.91163 9.00244H4.85005C4.99722 9.00244 5.11446 9.12127 5.11446 9.26486V15.1791H11.136V9.26486C11.136 9.1188 11.2557 9.00244 11.4004 9.00244H14.3388C14.486 9.00244 14.6032 9.12127 14.6032 9.26486V24.7325C14.6032 24.8786 14.4835 24.995 14.3388 24.995H14.3413ZM11.6673 24.4676H14.0744V9.52727H11.6673V15.4415C11.6673 15.5876 11.5476 15.7039 11.4029 15.7039H4.85005C4.70288 15.7039 4.58564 15.5851 4.58564 15.4415V9.52727H2.17853V24.4676H4.58564V18.2068C4.58564 18.0607 4.70538 17.9444 4.85005 17.9444H11.4004C11.5476 17.9444 11.6648 18.0632 11.6648 18.2068V24.4676H11.6673Z" fill="#E5756A"/>
<path d="M17.4743 9.26489H23.1541C23.9374 9.26489 24.6483 9.3862 25.2869 9.63128C25.9254 9.87637 26.4742 10.2155 26.9307 10.6463C27.3872 11.0795 27.7389 11.5945 27.9858 12.1911C28.2328 12.7877 28.355 13.4413 28.355 14.1468C28.355 14.6642 28.2677 15.1519 28.0931 15.605C27.9185 16.058 27.679 16.4689 27.3747 16.8353C27.0704 17.2017 26.7137 17.526 26.3071 17.8083C25.9005 18.088 25.4715 18.3083 25.0225 18.4668L25 18.6178L29.1782 24.5593V24.7326H25.8057L21.7797 18.9223H20.4078V24.7326H17.4694V9.26489H17.4743ZM23.1342 16.2412C23.8027 16.2412 24.349 16.0407 24.778 15.6371C25.207 15.2336 25.4191 14.7236 25.4191 14.1023C25.4191 13.8299 25.3717 13.5626 25.2769 13.3026C25.1821 13.0427 25.0399 12.8125 24.8528 12.6119C24.6633 12.4114 24.4288 12.248 24.1444 12.1267C23.8626 12.0054 23.5383 11.9435 23.1766 11.9435H20.4128V16.2412H23.1342Z" fill="#E5756A"/>
<path d="M29.1856 24.995H25.8132C25.7259 24.995 25.6435 24.9529 25.5937 24.8811L21.645 19.1847H20.6796V24.7325C20.6796 24.8786 20.5599 24.995 20.4152 24.995H17.4768C17.3296 24.995 17.2124 24.8761 17.2124 24.7325V9.26486C17.2124 9.1188 17.3321 9.00244 17.4768 9.00244H23.1566C23.9698 9.00244 24.7181 9.13117 25.3841 9.38616C26.0526 9.64363 26.6363 10.0026 27.1152 10.4556C27.5967 10.9111 27.9733 11.4607 28.2327 12.092C28.4922 12.7183 28.6219 13.4115 28.6219 14.1468C28.6219 14.6939 28.5271 15.2163 28.3425 15.699C28.1579 16.1768 27.9035 16.6175 27.5817 17.0036C27.2624 17.3874 26.8858 17.7315 26.4617 18.0236C26.105 18.2712 25.7283 18.4742 25.3367 18.6301L29.4001 24.4058C29.4301 24.4503 29.4475 24.5023 29.4475 24.5568V24.7301C29.4475 24.8761 29.3278 24.9925 29.1831 24.9925L29.1856 24.995ZM25.9504 24.4676H28.7965L24.788 18.7688C24.7505 18.7143 24.7331 18.6475 24.7431 18.5806L24.7655 18.4296C24.7805 18.3331 24.8453 18.2514 24.9401 18.2192C25.3642 18.0706 25.7757 17.8577 26.1624 17.5928C26.5465 17.328 26.8883 17.016 27.1751 16.6694C27.4595 16.3253 27.6865 15.9367 27.8511 15.5108C28.0132 15.09 28.0956 14.6295 28.0956 14.1468C28.0956 13.4784 27.9783 12.8545 27.7463 12.2925C27.5144 11.7331 27.1801 11.2429 26.7536 10.8394C26.3245 10.4334 25.8007 10.1115 25.197 9.87881C24.5909 9.6461 23.9074 9.52975 23.1591 9.52975H17.7437V24.4701H20.1508V18.9223C20.1508 18.7762 20.2706 18.6598 20.4152 18.6598H21.7872C21.8745 18.6598 21.9568 18.7019 22.0067 18.7737L25.9553 24.4701L25.9504 24.4676ZM23.1342 16.506H20.4127C20.2656 16.506 20.1483 16.3872 20.1483 16.2436V11.946C20.1483 11.7999 20.2681 11.6835 20.4127 11.6835H23.1766C23.5732 11.6835 23.9349 11.7529 24.2517 11.889C24.566 12.0252 24.8353 12.2108 25.0474 12.4361C25.2594 12.6639 25.4215 12.9263 25.5263 13.2159C25.6311 13.5031 25.6835 13.8027 25.6835 14.1047C25.6835 14.7954 25.439 15.3772 24.9576 15.8302C24.4811 16.2808 23.865 16.5085 23.1317 16.5085L23.1342 16.506ZM20.6796 15.9787H23.1342C23.7378 15.9787 24.2142 15.8054 24.5934 15.4465C24.97 15.0925 25.1521 14.6518 25.1521 14.1047C25.1521 13.8621 25.1097 13.6244 25.0274 13.3942C24.9451 13.1714 24.8204 12.9684 24.6582 12.7926C24.4961 12.6193 24.2866 12.4757 24.0396 12.3693C23.7902 12.2628 23.5008 12.2084 23.1766 12.2084H20.6772V15.9812L20.6796 15.9787Z" fill="#E5756A"/>
<path d="M42.7652 17.0235C42.8276 16.9493 42.8276 16.8403 42.7652 16.7661L36.2199 9.07927C36.18 9.03224 36.1226 9.005 36.0627 9.005H31.7C31.5279 9.005 31.4331 9.20305 31.5428 9.33674L37.8737 16.7636C37.936 16.8379 37.936 16.9468 37.8737 17.0211L31.4855 24.6658C31.3757 24.797 31.4705 24.9975 31.6426 24.9975H36.0054C36.0652 24.9975 36.1226 24.9703 36.1625 24.9257L40.4255 19.8631L42.7652 17.0235Z" fill="#E5756A"/>
<path d="M44.7134 14.8227L49.2932 9.33674C49.4029 9.20553 49.3082 9.005 49.136 9.005H44.7783C44.7184 9.005 44.661 9.03224 44.6211 9.07927L42.219 11.9708C42.1567 12.0451 42.1567 12.154 42.219 12.2283L44.4016 14.8252C44.4839 14.9217 44.6336 14.9217 44.7134 14.8252V14.8227Z" fill="#263B74"/>
<path d="M44.7209 19.1724L49.3081 24.6683C49.4179 24.7995 49.3231 25.0001 49.1509 25.0001H44.7857C44.7258 25.0001 44.6685 24.9728 44.6286 24.9258L42.2215 22.0293C42.1591 21.955 42.1591 21.8461 42.2215 21.7719L44.4091 19.1724C44.4914 19.0759 44.641 19.0759 44.7234 19.1724H44.7209Z" fill="#263B74"/>
</svg>
