<svg width="78" height="36" viewBox="0 0 78 36" fill="none" xmlns="http://www.w3.org/2000/svg">
<g clip-path="url(#clip0_4425_156)">
<path d="M19.6885 0.0381666V7.03792C19.6885 7.05701 19.6732 7.07609 19.6503 7.07609H18.3335C18.3335 7.07609 18.3106 7.06845 18.303 7.06082L15.7762 3.40446C15.7571 3.37393 15.7075 3.38919 15.7075 3.42354V7.03792C15.7075 7.05701 15.6922 7.07609 15.6693 7.07609H14.1082C14.0892 7.07609 14.0701 7.06082 14.0701 7.03792V0.0381666C14.0701 0.0190833 14.0853 0 14.1082 0H15.425C15.425 0 15.448 0.00763332 15.4556 0.0152666L17.9823 3.67163C18.0014 3.70216 18.051 3.68689 18.051 3.65254V0.0381666C18.051 0.0190833 18.0663 0 18.0892 0H19.6503C19.6694 0 19.6885 0.0152666 19.6885 0.0381666Z" fill="#263B74"/>
<path d="M5.65385 7.03792L5.63858 3.47316C5.63858 3.43499 5.58897 3.42354 5.56988 3.45789L4.13093 6.35474C4.13093 6.35474 4.11184 6.37382 4.10039 6.37382H3.40191C3.40191 6.37382 3.37519 6.36619 3.37138 6.35474L1.94006 3.55331C1.92479 3.51896 1.87135 3.53041 1.87135 3.56858V7.0341C1.87135 7.05319 1.85609 7.06845 1.837 7.06845H0.363697C0.344613 7.06845 0.329346 7.05319 0.329346 7.0341V0.0343499C0.329346 0.0152666 0.344613 0 0.363697 0H1.68051C1.68051 0 1.70723 0.00763332 1.71105 0.0190833L3.74161 4.01894C3.75306 4.04566 3.79123 4.04566 3.8065 4.01894L5.78744 0.0190833C5.78744 0.0190833 5.80653 0 5.81798 0H7.13479C7.15387 0 7.16914 0.0152666 7.16914 0.0343499L7.18441 7.03792C7.18441 7.057 7.16914 7.07227 7.15006 7.07227H5.6882C5.66912 7.07227 5.65385 7.057 5.65385 7.03792Z" fill="#263B74"/>
<path d="M11.4861 4.54564V7.0341C11.4861 7.05319 11.4708 7.07227 11.4479 7.07227H9.85249C9.8334 7.07227 9.81432 7.057 9.81432 7.0341V4.51511C9.81432 4.51511 9.81432 4.50366 9.8105 4.49984L7.59291 0.0534332C7.58146 0.0267166 7.59673 0 7.62726 0H9.30286C9.30286 0 9.32958 0.00763332 9.33721 0.0190833L10.6922 2.74036C10.7075 2.76708 10.7456 2.76708 10.7609 2.74036L12.1159 0.0190833C12.1159 0.0190833 12.135 0 12.1502 0H13.6846C13.7113 0 13.7304 0.0305333 13.719 0.0534332L11.4899 4.52656C11.4899 4.52656 11.4861 4.53801 11.4861 4.54182V4.54564Z" fill="#263B74"/>
<path d="M20.0891 0.0381666C20.0891 0.0152666 20.1044 0 20.1273 0H22.8792C24.8335 0 26.1732 1.36255 26.1732 3.53804C26.1732 5.71354 24.8335 7.07609 22.8792 7.07609H20.1273C20.1082 7.07609 20.0891 7.06082 20.0891 7.03792V0.0381666ZM22.8105 5.47691C23.8144 5.47691 24.4861 4.75938 24.4861 3.53804C24.4861 2.31671 23.8105 1.59918 22.8105 1.59918H21.7952C21.7762 1.59918 21.7571 1.61445 21.7571 1.63735V5.44637C21.7571 5.46546 21.7723 5.48454 21.7952 5.48454H22.8105V5.47691Z" fill="#263B74"/>
<path d="M2.98218 11.3332H7.56612V20.9727H17.7847V11.3332H22.3686V35.4628H17.7847V25.2865H7.56612V35.4628H2.98218V11.3332Z" fill="#E5756A"/>
<path d="M22.3724 35.8721H17.7884C17.5588 35.8721 17.376 35.6867 17.376 35.4627V25.6958H7.98237V35.4627C7.98237 35.6906 7.79559 35.8721 7.56989 35.8721H2.98206C2.75247 35.8721 2.56958 35.6867 2.56958 35.4627V11.3332C2.56958 11.1053 2.75636 10.9238 2.98206 10.9238H7.566C7.79559 10.9238 7.97848 11.1092 7.97848 11.3332V20.5594H17.3721V11.3332C17.3721 11.1053 17.5588 10.9238 17.7845 10.9238H22.3685C22.5981 10.9238 22.781 11.1092 22.781 11.3332V35.4627C22.781 35.6906 22.5942 35.8721 22.3685 35.8721H22.3724ZM18.2009 35.0495H21.956V11.7425H18.2009V20.9688C18.2009 21.1966 18.0141 21.3781 17.7884 21.3781H7.566C7.33642 21.3781 7.15352 21.1928 7.15352 20.9688V11.7425H3.39843V35.0495H7.15352V25.2826C7.15352 25.0547 7.34031 24.8732 7.566 24.8732H17.7845C18.0141 24.8732 18.197 25.0586 18.197 25.2826V35.0495H18.2009Z" fill="#E5756A"/>
<path d="M27.2602 11.3332H36.1207C37.3426 11.3332 38.4516 11.5225 39.4478 11.9048C40.4439 12.2871 41.3 12.8162 42.0121 13.4882C42.7242 14.164 43.2729 14.9673 43.6581 15.8981C44.0434 16.8288 44.234 17.8484 44.234 18.949C44.234 19.7562 44.0979 20.517 43.8255 21.2237C43.5531 21.9305 43.1795 22.5716 42.7048 23.1431C42.23 23.7147 41.6736 24.2206 41.0393 24.6609C40.405 25.0973 39.7357 25.441 39.0353 25.6882L39.0003 25.9237L45.5182 35.1925V35.4628H40.2571L33.9766 26.3988H31.8364V35.4628H27.2524V11.3332H27.2602ZM36.0896 22.2163C37.1324 22.2163 37.9846 21.9034 38.6539 21.2739C39.3232 20.6444 39.654 19.8489 39.654 18.8795C39.654 18.4547 39.5801 18.0376 39.4322 17.6321C39.2843 17.2266 39.0625 16.8674 38.7707 16.5546C38.4749 16.2418 38.1092 15.9869 37.6655 15.7977C37.2258 15.6084 36.72 15.5119 36.1557 15.5119H31.8442V22.2163H36.0896Z" fill="#E5756A"/>
<path d="M45.5295 35.8721H40.2685C40.1323 35.8721 40.0039 35.8065 39.9261 35.6945L33.7661 26.8081H32.2602V35.4627C32.2602 35.6906 32.0734 35.8721 31.8477 35.8721H27.2638C27.0342 35.8721 26.8513 35.6867 26.8513 35.4627V11.3332C26.8513 11.1053 27.0381 10.9238 27.2638 10.9238H36.1243C37.3928 10.9238 38.5602 11.1246 39.5992 11.5224C40.6421 11.924 41.5526 12.484 42.2998 13.1908C43.0508 13.9014 43.6384 14.7587 44.0431 15.7435C44.4477 16.7206 44.6501 17.802 44.6501 18.949C44.6501 19.8025 44.5022 20.6173 44.2143 21.3704C43.9263 22.1158 43.5294 22.8032 43.0274 23.4057C42.5293 24.0043 41.9418 24.5411 41.2802 24.9968C40.7238 25.383 40.1362 25.6997 39.5253 25.943L45.8642 34.953C45.9109 35.0225 45.9381 35.1036 45.9381 35.1885V35.4589C45.9381 35.6867 45.7513 35.8683 45.5256 35.8683L45.5295 35.8721ZM40.4825 35.0495H44.9225L38.6692 26.1593C38.6108 26.0743 38.5836 25.97 38.5991 25.8658L38.6342 25.6302C38.6575 25.4796 38.7587 25.3521 38.9065 25.3019C39.5681 25.0702 40.2101 24.7381 40.8133 24.3248C41.4125 23.9116 41.9456 23.425 42.3931 22.8843C42.8368 22.3475 43.1909 21.7412 43.4477 21.0769C43.7006 20.4204 43.829 19.7021 43.829 18.949C43.829 17.9062 43.6461 16.933 43.2843 16.0564C42.9224 15.1835 42.4009 14.4189 41.7355 13.7894C41.0662 13.156 40.249 12.654 39.3074 12.2909C38.3618 11.9279 37.2956 11.7464 36.1282 11.7464H27.6802V35.0534H31.4353V26.3987C31.4353 26.1709 31.622 25.9893 31.8477 25.9893H33.988C34.1241 25.9893 34.2526 26.055 34.3304 26.167L40.4903 35.0534L40.4825 35.0495ZM36.0892 22.6294H31.8438C31.6143 22.6294 31.4314 22.4441 31.4314 22.2201V15.5157C31.4314 15.2878 31.6182 15.1063 31.8438 15.1063H36.1554C36.7741 15.1063 37.3384 15.2144 37.8326 15.4269C38.3229 15.6393 38.7431 15.9289 39.0739 16.2803C39.4046 16.6356 39.6576 17.045 39.821 17.4969C39.9844 17.9449 40.0662 18.4122 40.0662 18.8833C40.0662 19.9608 39.6848 20.8684 38.9338 21.5751C38.1905 22.278 37.2294 22.6333 36.0854 22.6333L36.0892 22.6294ZM32.2602 21.8068H36.0892C37.0309 21.8068 37.7742 21.5365 38.3657 20.9765C38.9532 20.4242 39.2373 19.7368 39.2373 18.8833C39.2373 18.5048 39.1712 18.1341 39.0427 17.7749C38.9143 17.4274 38.7198 17.1107 38.4668 16.8365C38.2139 16.5661 37.887 16.3421 37.5018 16.1761C37.1127 16.01 36.6613 15.925 36.1554 15.925H32.2563V21.8107L32.2602 21.8068Z" fill="#E5756A"/>
<path d="M66.7137 23.4367C66.811 23.3209 66.811 23.1509 66.7137 23.0351L56.5029 11.0437C56.4407 10.9703 56.3512 10.9278 56.2578 10.9278H49.4519C49.1834 10.9278 49.0355 11.2368 49.2068 11.4453L59.0829 23.0312C59.1801 23.1471 59.1801 23.317 59.0829 23.4329L49.1173 35.3586C48.946 35.5633 49.0939 35.8761 49.3624 35.8761H56.1683C56.2617 35.8761 56.3512 35.8336 56.4134 35.7641L63.0637 27.8664L66.7137 23.4367Z" fill="#E5756A"/>
<path d="M69.7528 20.0034L76.8972 11.4453C77.0685 11.2406 76.9206 10.9278 76.6521 10.9278H69.854C69.7606 10.9278 69.6711 10.9703 69.6089 11.0437L65.8615 15.5544C65.7643 15.6703 65.7643 15.8402 65.8615 15.9561L69.2664 20.0073C69.3948 20.1579 69.6283 20.1579 69.7528 20.0073V20.0034Z" fill="#263B74"/>
<path d="M69.7648 26.789L76.9209 35.3626C77.0921 35.5673 76.9442 35.8801 76.6757 35.8801H69.8659C69.7725 35.8801 69.683 35.8376 69.6208 35.7642L65.8657 31.2457C65.7684 31.1299 65.7684 30.9599 65.8657 30.8441L69.2783 26.789C69.4068 26.6384 69.6402 26.6384 69.7687 26.789H69.7648Z" fill="#263B74"/>
</g>
<defs>
<clipPath id="clip0_4425_156">
<rect width="78" height="35.88" fill="white"/>
</clipPath>
</defs>
</svg>
